<svg width="1200" height="1200" viewBox="0 0 1200 1200" fill="none" xmlns="http://www.w3.org/2000/svg">
<rect x="809.415" y="388.779" width="85.5692" height="133.108" rx="25" fill="#BBBBBB"/>
<rect x="543.2" y="388.779" width="237.692" height="133.108" rx="25" fill="#BBBBBB"/>
<rect x="296" y="388.779" width="218.677" height="133.108" rx="25" fill="#BBBBBB"/>
<rect x="296" y="560.41" width="76.0615" height="133.108" rx="25" fill="#BBBBBB"/>
<rect x="400.585" y="560.41" width="237.692" height="133.108" rx="25" fill="#BBBBBB"/>
<rect x="666.8" y="560.41" width="228.185" height="133.108" rx="25" fill="#BBBBBB"/>
<rect x="495.662" y="218.133" width="209.169" height="133.108" rx="25" fill="#BBBBBB"/>
<rect x="733.354" y="218.133" width="161.631" height="133.108" rx="25" fill="#BBBBBB"/>
<rect x="296" y="218.133" width="171.138" height="133.108" rx="25" fill="#BBBBBB"/>
<path d="M489.5 239.087C489.5 262.716 475.385 347.587 462.5 337.087C440 322.087 417.5 286.587 414 262.087C413 239.087 421.247 218.087 437 218.087C452.753 218.087 489.5 215.458 489.5 239.087Z" fill="#131313"/>
<path d="M482 271.5C482 295.129 494.247 346 510 346C525.753 346 531.128 312.07 531.128 288.441C531.128 264.812 533.034 219.587 517.281 219.587C501.529 219.587 482 247.871 482 271.5Z" fill="#BBBBBB"/>
<path d="M644.341 238.869C526.836 222.807 514.787 250.922 511.77 327.757C508.139 420.492 465.074 378.981 457.547 359.386C452.407 346.044 437.957 309.669 406.323 308.173C352.155 305.587 340.043 302.137 318.953 296.118C297.859 290.092 334.015 338.298 349.082 362.404C389.886 427.689 464.965 585.114 706 582.087C806 582.087 828.124 578.672 802.154 569.164C768.877 556.981 710.625 537.144 719.66 537.144C728.701 537.144 838.669 451.274 828.124 443.743C817.575 436.212 713.904 494.966 662.42 494.966C623.25 494.966 587.073 449.715 629.273 381.484C676.473 305.164 834.679 304.299 849.209 281.056C854.236 273.021 757.902 254.4 644.341 238.869Z" fill="#131313"/>
<path d="M322.043 899H298.418V772.475H322.043V899ZM400.859 832.675C405.292 832.675 409.142 832.121 412.409 831.012C415.734 829.904 418.446 828.387 420.546 826.462C422.705 824.479 424.309 822.146 425.359 819.462C426.409 816.779 426.934 813.833 426.934 810.625C426.934 804.208 424.805 799.279 420.546 795.837C416.346 792.396 409.9 790.675 401.209 790.675H386.159V832.675H400.859ZM461.409 899H440.146C436.121 899 433.205 897.425 431.396 894.275L404.796 853.762C403.805 852.246 402.696 851.167 401.471 850.525C400.305 849.883 398.555 849.563 396.221 849.563H386.159V899H362.621V772.475H401.209C409.784 772.475 417.134 773.379 423.259 775.187C429.442 776.937 434.488 779.417 438.396 782.625C442.363 785.833 445.28 789.683 447.146 794.175C449.013 798.608 449.946 803.508 449.946 808.875C449.946 813.133 449.305 817.158 448.021 820.95C446.796 824.742 444.988 828.183 442.596 831.275C440.263 834.367 437.346 837.079 433.846 839.412C430.405 841.746 426.467 843.583 422.034 844.925C423.55 845.8 424.95 846.85 426.234 848.075C427.517 849.242 428.684 850.642 429.734 852.275L461.409 899Z" fill="#F6C553"/>
<path d="M591.097 838.712V886.837C584.797 891.387 578.06 894.8 570.885 897.075C563.768 899.292 555.952 900.4 547.435 900.4C537.343 900.4 528.243 898.854 520.135 895.762C512.027 892.612 505.085 888.237 499.31 882.637C493.593 876.979 489.189 870.212 486.097 862.337C483.006 854.462 481.46 845.8 481.46 836.35C481.46 826.783 482.947 818.062 485.922 810.187C488.956 802.312 493.243 795.575 498.785 789.975C504.327 784.317 511.064 779.942 518.997 776.85C526.931 773.758 535.797 772.212 545.597 772.212C550.556 772.212 555.164 772.592 559.422 773.35C563.681 774.05 567.618 775.1 571.235 776.5C574.852 777.842 578.206 779.504 581.297 781.487C584.389 783.412 587.277 785.6 589.96 788.05L585.147 795.75C584.389 796.917 583.397 797.675 582.172 798.025C581.006 798.317 579.693 798.025 578.235 797.15C576.835 796.333 575.231 795.342 573.422 794.175C571.614 793.008 569.397 791.9 566.772 790.85C564.206 789.742 561.143 788.808 557.585 788.05C554.085 787.292 549.914 786.912 545.072 786.912C538.014 786.912 531.627 788.079 525.91 790.412C520.193 792.687 515.322 795.983 511.297 800.3C507.272 804.558 504.181 809.75 502.022 815.875C499.864 821.942 498.785 828.767 498.785 836.35C498.785 844.225 499.893 851.283 502.11 857.525C504.385 863.708 507.593 868.987 511.735 873.362C515.935 877.679 521.01 880.975 526.96 883.25C532.91 885.525 539.589 886.662 546.997 886.662C552.831 886.662 557.993 886.021 562.485 884.737C567.035 883.396 571.468 881.558 575.785 879.225V851.662H556.272C555.164 851.662 554.26 851.342 553.56 850.7C552.918 850.058 552.597 849.271 552.597 848.337V838.712H591.097ZM646.304 787.437V831.275H697.842V845.1H646.304V899H629.329V773.612H706.592V787.437H646.304ZM903.017 773.612L863.905 899H848.68L816.917 803.362C816.625 802.429 816.334 801.437 816.042 800.387C815.809 799.337 815.546 798.229 815.255 797.062C814.963 798.229 814.671 799.337 814.38 800.387C814.088 801.437 813.796 802.429 813.505 803.362L781.567 899H766.342L727.23 773.612H741.317C742.834 773.612 744.088 773.992 745.08 774.75C746.13 775.508 746.8 776.471 747.092 777.637L772.992 864.787C773.4 866.362 773.78 868.054 774.13 869.862C774.538 871.671 774.917 873.596 775.267 875.637C775.675 873.596 776.084 871.671 776.492 869.862C776.959 867.996 777.455 866.304 777.98 864.787L807.467 777.637C807.817 776.646 808.488 775.742 809.48 774.925C810.53 774.05 811.784 773.612 813.242 773.612H818.142C819.659 773.612 820.884 773.992 821.817 774.75C822.75 775.508 823.45 776.471 823.917 777.637L853.317 864.787C853.842 866.304 854.309 867.937 854.717 869.687C855.184 871.437 855.621 873.275 856.03 875.2C856.321 873.275 856.642 871.437 856.992 869.687C857.342 867.937 857.721 866.304 858.13 864.787L884.117 777.637C884.409 776.587 885.05 775.654 886.042 774.837C887.092 774.021 888.346 773.612 889.805 773.612H903.017Z" fill="white"/>
</svg>
