<svg version="1.1" id="Layer_1" xmlns="http://www.w3.org/2000/svg" xmlns:xlink="http://www.w3.org/1999/xlink" x="0px" y="0px"
	 width="100%" viewBox="0 0 512 512" enable-background="new 0 0 512 512" xml:space="preserve">
<path fill="#000000" opacity="1.000000" stroke="none" 
	d="
M283.000000,513.000000 
	C188.689560,513.000000 94.879120,513.000000 1.034338,513.000000 
	C1.034338,342.397858 1.034338,171.795731 1.034338,1.096792 
	C171.560455,1.096792 342.121002,1.096792 512.840759,1.096792 
	C512.840759,171.666550 512.840759,342.333252 512.840759,513.000000 
	C436.462372,513.000000 359.981171,513.000000 283.000000,513.000000 
M406.940063,368.585968 
	C418.237244,332.155609 429.534424,295.725281 441.005341,258.734558 
	C434.850128,258.734558 429.698334,258.819824 424.550720,258.709930 
	C419.663330,258.605530 416.854828,260.812134 415.534637,265.542572 
	C409.810547,286.053009 403.959747,306.528137 398.138428,327.011353 
	C397.358582,329.755402 396.484131,332.472595 395.653503,335.202209 
	C395.194550,335.197906 394.735565,335.193604 394.276611,335.189301 
	C393.545624,333.258789 392.735504,331.354065 392.095795,329.393799 
	C385.128357,308.044006 378.292236,286.650146 371.098572,265.377136 
	C370.262299,262.904144 367.854431,259.876923 365.546387,259.175262 
	C355.575195,256.144135 350.838104,259.098633 347.587921,269.104858 
	C340.599670,290.619202 333.549469,312.113434 326.486389,333.603333 
	C326.187927,334.511383 325.505798,335.293365 324.581787,336.836517 
	C324.010651,334.948700 323.713257,334.014618 323.445068,333.072235 
	C317.025299,310.512726 310.578125,287.960876 304.225220,265.382538 
	C303.295807,262.079407 301.880157,259.142273 298.203339,258.974365 
	C291.620941,258.673676 285.014954,258.889618 277.685699,258.889618 
	C289.634247,297.355896 301.385468,335.186981 313.085144,372.851990 
	C320.072937,372.851990 326.392700,372.851990 333.070068,372.851990 
	C341.697937,346.189636 350.333618,319.503296 359.293488,291.815033 
	C360.303955,294.382629 360.988892,295.868988 361.482849,297.416351 
	C368.769623,320.241638 376.167999,343.033020 383.192444,365.939026 
	C384.750763,371.020599 386.556824,374.134705 392.569458,373.041382 
	C395.633728,372.484161 398.906647,372.703705 402.041656,373.013397 
	C405.006042,373.306213 406.366547,372.142944 406.940063,368.585968 
M318.433289,197.021149 
	C311.788055,187.308853 305.142792,177.596573 298.415558,167.764481 
	C299.148560,167.411057 300.479218,166.783890 301.797455,166.131607 
	C314.980804,159.608459 322.001282,147.339050 320.894440,132.765869 
	C319.841614,118.903961 312.587799,109.732071 297.780579,105.392044 
	C279.530029,100.042763 260.741974,103.682320 242.075256,102.483833 
	C242.075256,140.890060 242.075256,178.635147 242.075256,216.549179 
	C249.435364,216.549179 256.494507,216.549179 264.043365,216.549179 
	C264.043365,201.829956 264.043365,187.417038 264.043365,173.057159 
	C276.816193,172.002060 276.786255,172.021576 283.179382,181.831207 
	C289.542816,191.595322 295.876495,201.382019 302.454926,211.000320 
	C303.872101,213.072372 306.176056,215.771301 308.251617,215.937912 
	C315.703033,216.536057 323.231598,216.172562 331.326630,216.172562 
	C326.983124,209.708313 322.917542,203.657639 318.433289,197.021149 
M89.053024,273.549530 
	C66.063156,297.162689 67.387871,338.575562 91.407860,360.344147 
	C113.969879,380.791473 153.803375,376.298187 171.741287,363.125580 
	C173.001541,362.200073 173.808960,359.877563 173.840149,358.186493 
	C174.030655,347.859253 173.935867,337.526733 173.936127,327.195984 
	C173.936234,323.267242 173.936142,319.338501 173.936142,315.342163 
	C160.623627,315.342163 148.048782,315.342163 134.984711,315.342163 
	C134.984711,319.093445 135.121948,322.559967 134.949844,326.011078 
	C134.736481,330.289062 136.709045,332.161346 140.867462,332.115967 
	C144.986633,332.071014 149.106689,332.106140 153.579041,332.106140 
	C153.579041,334.986389 153.579056,337.301239 153.579041,339.616119 
	C153.578918,353.361511 152.771561,354.365784 138.859589,355.794525 
	C122.980286,357.425262 109.268440,353.765076 100.797523,338.838013 
	C95.958328,330.310608 94.663391,320.927368 95.600571,311.285553 
	C97.431290,292.450989 106.956985,280.812469 123.576630,277.597137 
	C135.485687,275.293121 146.695541,277.619476 157.094177,284.049347 
	C162.735397,287.537537 164.921875,286.876892 168.584000,281.356628 
	C170.399323,278.620209 172.117996,275.819672 173.837997,273.114807 
	C152.996414,252.253174 111.936462,252.342377 89.053024,273.549530 
M249.499359,276.867432 
	C255.913788,276.867432 262.328217,276.867432 268.716705,276.867432 
	C268.716705,270.394226 268.716705,264.779785 268.716705,259.050110 
	C244.576126,259.050110 220.668945,259.050110 196.673325,259.050110 
	C196.673325,297.116302 196.673325,334.868408 196.673325,372.626099 
	C204.189178,372.626099 211.401367,372.626099 219.028717,372.626099 
	C219.028717,357.322296 219.028717,342.398834 219.028717,326.963501 
	C233.173447,326.963501 246.901871,326.963501 260.674744,326.963501 
	C260.674744,320.715363 260.674744,314.993317 260.674744,308.807556 
	C246.599716,308.807556 232.855820,308.807556 219.237823,308.807556 
	C219.237823,297.928436 219.237823,287.525482 219.237823,276.867432 
	C229.209900,276.867432 238.854782,276.867432 249.499359,276.867432 
M190.255356,154.499878 
	C190.255356,175.215073 190.255356,195.930267 190.255356,216.486816 
	C198.270966,216.486816 205.335938,216.486816 212.404388,216.486816 
	C212.404388,178.402649 212.404388,140.709808 212.404388,102.901192 
	C204.950790,102.901192 197.865952,102.901192 190.255371,102.901192 
	C190.255371,119.954742 190.255371,136.727310 190.255356,154.499878 
z"/>
<path fill="#FAFAFA" opacity="1.000000" stroke="none" 
	d="
M406.835266,368.984253 
	C406.366547,372.142944 405.006042,373.306213 402.041656,373.013397 
	C398.906647,372.703705 395.633728,372.484161 392.569458,373.041382 
	C386.556824,374.134705 384.750763,371.020599 383.192444,365.939026 
	C376.167999,343.033020 368.769623,320.241638 361.482849,297.416351 
	C360.988892,295.868988 360.303955,294.382629 359.293488,291.815033 
	C350.333618,319.503296 341.697937,346.189636 333.070068,372.851990 
	C326.392700,372.851990 320.072937,372.851990 313.085144,372.851990 
	C301.385468,335.186981 289.634247,297.355896 277.685699,258.889618 
	C285.014954,258.889618 291.620941,258.673676 298.203339,258.974365 
	C301.880157,259.142273 303.295807,262.079407 304.225220,265.382538 
	C310.578125,287.960876 317.025299,310.512726 323.445068,333.072235 
	C323.713257,334.014618 324.010651,334.948700 324.581787,336.836517 
	C325.505798,335.293365 326.187927,334.511383 326.486389,333.603333 
	C333.549469,312.113434 340.599670,290.619202 347.587921,269.104858 
	C350.838104,259.098633 355.575195,256.144135 365.546387,259.175262 
	C367.854431,259.876923 370.262299,262.904144 371.098572,265.377136 
	C378.292236,286.650146 385.128357,308.044006 392.095795,329.393799 
	C392.735504,331.354065 393.545624,333.258789 394.276611,335.189301 
	C394.735565,335.193604 395.194550,335.197906 395.653503,335.202209 
	C396.484131,332.472595 397.358582,329.755402 398.138428,327.011353 
	C403.959747,306.528137 409.810547,286.053009 415.534637,265.542572 
	C416.854828,260.812134 419.663330,258.605530 424.550720,258.709930 
	C429.698334,258.819824 434.850128,258.734558 441.005341,258.734558 
	C429.534424,295.725281 418.237244,332.155609 406.835266,368.984253 
z"/>
<path fill="#FBFBFB" opacity="1.000000" stroke="none" 
	d="
M318.642609,197.314056 
	C322.917542,203.657639 326.983124,209.708313 331.326630,216.172562 
	C323.231598,216.172562 315.703033,216.536057 308.251617,215.937912 
	C306.176056,215.771301 303.872101,213.072372 302.454926,211.000320 
	C295.876495,201.382019 289.542816,191.595322 283.179382,181.831207 
	C276.786255,172.021576 276.816193,172.002060 264.043365,173.057159 
	C264.043365,187.417038 264.043365,201.829956 264.043365,216.549179 
	C256.494507,216.549179 249.435364,216.549179 242.075256,216.549179 
	C242.075256,178.635147 242.075256,140.890060 242.075256,102.483833 
	C260.741974,103.682320 279.530029,100.042763 297.780579,105.392044 
	C312.587799,109.732071 319.841614,118.903961 320.894440,132.765869 
	C322.001282,147.339050 314.980804,159.608459 301.797455,166.131607 
	C300.479218,166.783890 299.148560,167.411057 298.415558,167.764481 
	C305.142792,177.596573 311.788055,187.308853 318.642609,197.314056 
M263.976990,121.788841 
	C263.976990,133.179932 263.976990,144.571014 263.976990,156.015564 
	C269.692596,156.015564 274.750214,156.545853 279.635773,155.856522 
	C283.948334,155.248032 288.623596,154.112671 292.169586,151.753342 
	C302.517822,144.868164 301.329956,127.514961 290.415802,122.711784 
	C281.952118,118.987022 273.030792,119.583557 263.976990,121.788841 
z"/>
<path fill="#FAFAFA" opacity="1.000000" stroke="none" 
	d="
M89.308891,273.305969 
	C111.936462,252.342377 152.996414,252.253174 173.837997,273.114807 
	C172.117996,275.819672 170.399323,278.620209 168.584000,281.356628 
	C164.921875,286.876892 162.735397,287.537537 157.094177,284.049347 
	C146.695541,277.619476 135.485687,275.293121 123.576630,277.597137 
	C106.956985,280.812469 97.431290,292.450989 95.600571,311.285553 
	C94.663391,320.927368 95.958328,330.310608 100.797523,338.838013 
	C109.268440,353.765076 122.980286,357.425262 138.859589,355.794525 
	C152.771561,354.365784 153.578918,353.361511 153.579041,339.616119 
	C153.579056,337.301239 153.579041,334.986389 153.579041,332.106140 
	C149.106689,332.106140 144.986633,332.071014 140.867462,332.115967 
	C136.709045,332.161346 134.736481,330.289062 134.949844,326.011078 
	C135.121948,322.559967 134.984711,319.093445 134.984711,315.342163 
	C148.048782,315.342163 160.623627,315.342163 173.936142,315.342163 
	C173.936142,319.338501 173.936234,323.267242 173.936127,327.195984 
	C173.935867,337.526733 174.030655,347.859253 173.840149,358.186493 
	C173.808960,359.877563 173.001541,362.200073 171.741287,363.125580 
	C153.803375,376.298187 113.969879,380.791473 91.407860,360.344147 
	C67.387871,338.575562 66.063156,297.162689 89.308891,273.305969 
z"/>
<path fill="#F9F9F9" opacity="1.000000" stroke="none" 
	d="
M248.999512,276.867432 
	C238.854782,276.867432 229.209900,276.867432 219.237823,276.867432 
	C219.237823,287.525482 219.237823,297.928436 219.237823,308.807556 
	C232.855820,308.807556 246.599716,308.807556 260.674744,308.807556 
	C260.674744,314.993317 260.674744,320.715363 260.674744,326.963501 
	C246.901871,326.963501 233.173447,326.963501 219.028717,326.963501 
	C219.028717,342.398834 219.028717,357.322296 219.028717,372.626099 
	C211.401367,372.626099 204.189178,372.626099 196.673325,372.626099 
	C196.673325,334.868408 196.673325,297.116302 196.673325,259.050110 
	C220.668945,259.050110 244.576126,259.050110 268.716705,259.050110 
	C268.716705,264.779785 268.716705,270.394226 268.716705,276.867432 
	C262.328217,276.867432 255.913788,276.867432 248.999512,276.867432 
z"/>
<path fill="#F6F6F6" opacity="1.000000" stroke="none" 
	d="
M190.255371,153.999878 
	C190.255371,136.727310 190.255371,119.954742 190.255371,102.901192 
	C197.865952,102.901192 204.950790,102.901192 212.404388,102.901192 
	C212.404388,140.709808 212.404388,178.402649 212.404388,216.486816 
	C205.335938,216.486816 198.270966,216.486816 190.255356,216.486816 
	C190.255356,195.930267 190.255356,175.215073 190.255371,153.999878 
z"/>
<path fill="#050505" opacity="1.000000" stroke="none" 
	d="
M264.055603,121.319199 
	C273.030792,119.583557 281.952118,118.987022 290.415802,122.711784 
	C301.329956,127.514961 302.517822,144.868164 292.169586,151.753342 
	C288.623596,154.112671 283.948334,155.248032 279.635773,155.856522 
	C274.750214,156.545853 269.692596,156.015564 263.976990,156.015564 
	C263.976990,144.571014 263.976990,133.179932 264.055603,121.319199 
z"/>
</svg>