<?xml version="1.0" encoding="UTF-8"?>
<!DOCTYPE svg PUBLIC "-//W3C//DTD SVG 1.1//EN" "http://www.w3.org/Graphics/SVG/1.1/DTD/svg11.dtd">
<svg xmlns="http://www.w3.org/2000/svg" version="1.1" width="1200px" height="1200px" style="shape-rendering:geometricPrecision; text-rendering:geometricPrecision; image-rendering:optimizeQuality; fill-rule:evenodd; clip-rule:evenodd" xmlns:xlink="http://www.w3.org/1999/xlink">
<g><path style="opacity:0.999" fill="#131313" d="M 564.5,-0.5 C 587.833,-0.5 611.167,-0.5 634.5,-0.5C 823.267,14.9401 974.1,97.9401 1087,248.5C 1153.94,343.153 1191.44,448.487 1199.5,564.5C 1199.5,587.833 1199.5,611.167 1199.5,634.5C 1184.06,823.267 1101.06,974.1 950.5,1087C 855.847,1153.94 750.513,1191.44 634.5,1199.5C 611.167,1199.5 587.833,1199.5 564.5,1199.5C 375.733,1184.06 224.9,1101.06 112,950.5C 45.0562,855.847 7.55618,750.513 -0.5,634.5C -0.5,611.167 -0.5,587.833 -0.5,564.5C 14.9401,375.733 97.9401,224.9 248.5,112C 343.153,45.0562 448.487,7.55618 564.5,-0.5 Z"/></g>
<g><path style="opacity:1" fill="#b9b9b9" d="M 314.5,217.5 C 353.835,217.333 393.168,217.5 432.5,218C 423.858,221.752 418.358,228.252 416,237.5C 413.238,247.773 412.905,258.106 415,268.5C 423.749,296.904 439.916,320.07 463.5,338C 460.667,342.167 457.167,345.667 453,348.5C 447.278,335.224 438.778,324.058 427.5,315C 423.547,312.19 419.213,310.19 414.5,309C 392.785,307.783 371.118,305.783 349.5,303C 337.107,300.65 324.773,298.15 312.5,295.5C 312.323,300.805 313.49,305.805 316,310.5C 323.666,323.837 331.833,336.837 340.5,349.5C 330.442,350.923 320.442,350.757 310.5,349C 302.23,345.062 297.396,338.562 296,329.5C 295.333,298.5 295.333,267.5 296,236.5C 299.017,226.984 305.184,220.651 314.5,217.5 Z"/></g>
<g><path style="opacity:1" fill="#b8b8b8" d="M 514.5,217.5 C 571.501,217.333 628.501,217.5 685.5,218C 699.28,222.961 705.613,232.795 704.5,247.5C 667.439,240.729 630.105,236.396 592.5,234.5C 573.405,232.704 555.405,236.204 538.5,245C 526.607,253.932 519.107,265.766 516,280.5C 512.428,298.653 510.761,316.986 511,335.5C 510.792,339.918 510.126,344.251 509,348.5C 500.425,342.727 494.758,334.727 492,324.5C 483.944,302.781 480.944,280.448 483,257.5C 487.09,243.484 494.59,231.65 505.5,222C 508.592,220.454 511.592,218.954 514.5,217.5 Z"/></g>
<g><path style="opacity:1" fill="#bababa" d="M 733.5,330.5 C 733.221,325.405 733.555,320.405 734.5,315.5C 766.289,306.719 798.289,298.553 830.5,291C 835.62,288.94 840.62,286.607 845.5,284C 849.808,280.241 849.141,277.575 843.5,276C 834.915,273.021 826.248,270.354 817.5,268C 789.649,261.826 761.649,256.492 733.5,252C 730.271,235.793 736.271,224.459 751.5,218C 792.167,217.333 832.833,217.333 873.5,218C 884.119,219.951 890.952,226.118 894,236.5C 894.667,268.167 894.667,299.833 894,331.5C 891.032,341.47 884.532,347.636 874.5,350C 833.5,350.667 792.5,350.667 751.5,350C 741.47,347.139 735.47,340.639 733.5,330.5 Z"/></g>
<g><path style="opacity:1" fill="#747474" d="M 734.5,315.5 C 733.555,320.405 733.221,325.405 733.5,330.5C 732.836,328.19 732.503,325.69 732.5,323C 732.525,320.071 733.191,317.571 734.5,315.5 Z"/></g>
<g><path style="opacity:1" fill="#b6b6b6" d="M 703.5,325.5 C 703.874,338.489 697.54,346.656 684.5,350C 675.833,350.667 667.167,350.667 658.5,350C 672.666,340.251 687.666,332.085 703.5,325.5 Z"/></g>
<g><path style="opacity:1" fill="#bababa" d="M 480.5,519.5 C 425.336,520.499 370.003,520.832 314.5,520.5C 304.924,518.092 298.757,512.092 296,502.5C 295.333,470.5 295.333,438.5 296,406.5C 299.192,397.974 305.026,392.141 313.5,389C 330.843,388.167 348.176,388.334 365.5,389.5C 387.058,426.91 413.391,460.744 444.5,491C 456.087,501.095 468.087,510.595 480.5,519.5 Z"/></g>
<g><path style="opacity:1" fill="#bababa" d="M 624.5,388.5 C 671.227,388.015 717.893,388.515 764.5,390C 772.493,393.326 777.659,399.159 780,407.5C 780.667,424.167 780.667,440.833 780,457.5C 749.098,471.519 717.264,483.019 684.5,492C 657.759,499.972 635.926,493.138 619,471.5C 607.915,451.143 606.582,430.143 615,408.5C 617.924,401.655 621.09,394.988 624.5,388.5 Z"/></g>
<g><path style="opacity:1" fill="#bababa" d="M 810.5,445.5 C 809.505,433.345 809.171,421.011 809.5,408.5C 810.997,399.502 815.997,393.335 824.5,390C 833.262,388.876 842.095,388.376 851,388.5C 860.224,388.39 869.391,388.89 878.5,390C 886.493,393.326 891.659,399.159 894,407.5C 894.667,438.833 894.667,470.167 894,501.5C 891.5,512 885,518.5 874.5,521C 859.5,521.667 844.5,521.667 829.5,521C 818.675,518.175 811.842,511.342 809,500.5C 808.168,489.485 808.334,478.485 809.5,467.5C 817.508,461.333 823.841,453.833 828.5,445C 828.355,444.228 828.022,443.561 827.5,443C 821.641,442.451 815.975,443.284 810.5,445.5 Z"/></g>
<g><path style="opacity:1" fill="#787878" d="M 809.5,408.5 C 809.171,421.011 809.505,433.345 810.5,445.5C 810.44,446.043 810.107,446.376 809.5,446.5C 808.175,433.673 808.175,421.006 809.5,408.5 Z"/></g>
<g><path style="opacity:1" fill="#b4b4b4" d="M 779.5,493.5 C 780.806,507.67 774.472,516.837 760.5,521C 755.167,521.667 749.833,521.667 744.5,521C 756.353,511.97 768.02,502.803 779.5,493.5 Z"/></g>
<g><path style="opacity:1" fill="#a4a4a4" d="M 480.5,519.5 C 481.289,519.783 481.956,520.283 482.5,521C 426.332,521.832 370.332,521.665 314.5,520.5C 370.003,520.832 425.336,520.499 480.5,519.5 Z"/></g>
<g><path style="opacity:1" fill="#7b7b7b" d="M 872.5,560.5 C 841.995,560.169 811.662,560.502 781.5,561.5C 780.244,561.539 779.244,561.039 778.5,560C 810.003,559.169 841.336,559.336 872.5,560.5 Z"/></g>
<g><path style="opacity:1" fill="#bababa" d="M 315.5,559.5 C 326.838,559.333 338.172,559.5 349.5,560C 360.623,561.635 367.789,567.802 371,578.5C 371.667,610.167 371.667,641.833 371,673.5C 368.832,682.688 363.332,688.855 354.5,692C 340.508,693.98 326.508,693.98 312.5,692C 304.151,688.321 298.651,682.154 296,673.5C 295.333,641.833 295.333,610.167 296,578.5C 299.361,568.91 305.861,562.577 315.5,559.5 Z"/></g>
<g><path style="opacity:1" fill="#b9b9b9" d="M 420.5,559.5 C 467.168,559.333 513.835,559.5 560.5,560C 585.252,568.349 610.586,574.349 636.5,578C 637.662,610.095 637.829,642.262 637,674.5C 633.986,684.845 627.153,691.011 616.5,693C 551.167,693.667 485.833,693.667 420.5,693C 410.835,690.667 404.335,684.834 401,675.5C 400.333,642.833 400.333,610.167 401,577.5C 404.511,568.152 411.011,562.152 420.5,559.5 Z"/></g>
<g><path style="opacity:1" fill="#bababa" d="M 781.5,561.5 C 811.662,560.502 841.995,560.169 872.5,560.5C 883.28,562.146 890.447,568.146 894,578.5C 894.167,594.167 894.333,609.833 894.5,625.5C 894.638,642.55 894.138,659.55 893,676.5C 889.237,685.265 882.737,690.765 873.5,693C 811.833,693.667 750.167,693.667 688.5,693C 677.435,691.382 670.268,685.215 667,674.5C 666.5,643.502 666.333,612.502 666.5,581.5C 710.528,581.927 754.528,581.093 798.5,579C 802.885,578.46 807.051,577.293 811,575.5C 810.642,572.506 808.808,570.673 805.5,570C 797.385,567.462 789.385,564.629 781.5,561.5 Z"/></g>
<g><path style="opacity:1" fill="#9d7e39" d="M 321.5,772.5 C 313.833,772.5 306.167,772.5 298.5,772.5C 298.5,814.5 298.5,856.5 298.5,898.5C 297.501,856.337 297.168,814.003 297.5,771.5C 305.684,771.174 313.684,771.508 321.5,772.5 Z"/></g>
<g><path style="opacity:1" fill="#f6c453" d="M 321.5,772.5 C 321.5,814.5 321.5,856.5 321.5,898.5C 313.833,898.5 306.167,898.5 298.5,898.5C 298.5,856.5 298.5,814.5 298.5,772.5C 306.167,772.5 313.833,772.5 321.5,772.5 Z"/></g>
<g><path style="opacity:1" fill="#6d5a2c" d="M 407.5,772.5 C 392.5,772.5 377.5,772.5 362.5,772.5C 362.5,814.5 362.5,856.5 362.5,898.5C 361.501,856.337 361.168,814.003 361.5,771.5C 377.009,771.17 392.342,771.504 407.5,772.5 Z"/></g>
<g><path style="opacity:1" fill="#f4c353" d="M 407.5,772.5 C 420.107,772.646 431.274,776.646 441,784.5C 451.225,798.434 452.225,813.1 444,828.5C 438.405,835.926 431.238,841.259 422.5,844.5C 425.522,846.688 428.022,849.355 430,852.5C 439.672,867.846 449.838,882.846 460.5,897.5C 456.333,897.833 452.167,898.167 448,898.5C 443.056,898.612 438.223,898.112 433.5,897C 422.919,881.839 412.586,866.506 402.5,851C 396.956,849.596 391.29,849.096 385.5,849.5C 385.5,865.833 385.5,882.167 385.5,898.5C 377.833,898.5 370.167,898.5 362.5,898.5C 362.5,856.5 362.5,814.5 362.5,772.5C 377.5,772.5 392.5,772.5 407.5,772.5 Z"/></g>
<g><path style="opacity:1" fill="#fafafa" d="M 552.5,838.5 C 565.167,838.5 577.833,838.5 590.5,838.5C 590.5,854.5 590.5,870.5 590.5,886.5C 572.585,898.21 552.918,902.376 531.5,899C 498.443,890.712 481.776,869.545 481.5,835.5C 481.642,799.72 499.309,778.554 534.5,772C 555.227,769.109 573.56,774.276 589.5,787.5C 587.833,790.167 586.167,792.833 584.5,795.5C 583.312,796.84 581.812,797.507 580,797.5C 568.935,790.313 556.768,786.646 543.5,786.5C 519.153,787.344 504.32,799.677 499,823.5C 496.298,873.801 519.465,893.301 568.5,882C 570.746,880.961 572.913,879.794 575,878.5C 575.5,869.506 575.666,860.506 575.5,851.5C 568.159,851.666 560.826,851.5 553.5,851C 552.536,846.934 552.203,842.767 552.5,838.5 Z"/></g>
<g><path style="opacity:1" fill="#686868" d="M 742.5,773.5 C 737.056,772.892 732.056,773.558 727.5,775.5C 726.596,774.791 726.263,773.791 726.5,772.5C 732.026,772.179 737.36,772.512 742.5,773.5 Z"/></g>
<g><path style="opacity:1" fill="#fefefe" d="M 645.5,830.5 C 662.325,831.497 679.325,831.83 696.5,831.5C 696.5,835.833 696.5,840.167 696.5,844.5C 679.5,844.5 662.5,844.5 645.5,844.5C 645.5,862.5 645.5,880.5 645.5,898.5C 640.167,898.5 634.833,898.5 629.5,898.5C 629.5,856.833 629.5,815.167 629.5,773.5C 654.833,773.5 680.167,773.5 705.5,773.5C 705.5,777.833 705.5,782.167 705.5,786.5C 685.5,786.5 665.5,786.5 645.5,786.5C 645.5,801.167 645.5,815.833 645.5,830.5 Z"/></g>
<g><path style="opacity:1" fill="#fbfbfb" d="M 742.5,773.5 C 744.752,773.916 746.252,775.249 747,777.5C 756.333,809.5 765.667,841.5 775,873.5C 784.733,841.968 795.066,810.635 806,779.5C 806.792,777.413 807.959,775.579 809.5,774C 813.5,773.333 817.5,773.333 821.5,774C 833.524,806.237 844.857,838.737 855.5,871.5C 864.891,839.492 874.391,807.492 884,775.5C 884.5,775 885,774.5 885.5,774C 891.167,773.333 896.833,773.333 902.5,774C 889.444,814.712 876.611,855.545 864,896.5C 858.803,898.42 853.303,899.087 847.5,898.5C 836.972,864.75 826.139,831.083 815,797.5C 803.342,830.974 792.175,864.64 781.5,898.5C 776.167,898.5 770.833,898.5 765.5,898.5C 753.238,857.379 740.571,816.379 727.5,775.5C 732.056,773.558 737.056,772.892 742.5,773.5 Z"/></g>
<g><path style="opacity:1" fill="#7a7a7a" d="M 646.5,830.5 C 646.167,830.5 645.833,830.5 645.5,830.5C 645.5,815.833 645.5,801.167 645.5,786.5C 665.5,786.5 685.5,786.5 705.5,786.5C 705.5,782.167 705.5,777.833 705.5,773.5C 680.167,773.5 654.833,773.5 629.5,773.5C 629.5,815.167 629.5,856.833 629.5,898.5C 628.501,856.67 628.168,814.67 628.5,772.5C 654.5,772.5 680.5,772.5 706.5,772.5C 706.5,777.5 706.5,782.5 706.5,787.5C 686.5,787.5 666.5,787.5 646.5,787.5C 646.5,801.833 646.5,816.167 646.5,830.5 Z"/></g>
<g><path style="opacity:1" fill="#161514" d="M 385.5,790.5 C 393.507,790.334 401.507,790.5 409.5,791C 425.38,795.275 430.213,805.108 424,820.5C 420.111,827.201 414.277,831.034 406.5,832C 399.508,832.5 392.508,832.666 385.5,832.5C 385.5,818.5 385.5,804.5 385.5,790.5 Z"/></g>
<g><path style="opacity:1" fill="#c8c8c8" d="M 645.5,830.5 C 645.833,830.5 646.167,830.5 646.5,830.5C 663.5,830.5 680.5,830.5 697.5,830.5C 697.5,835.167 697.5,839.833 697.5,844.5C 697.167,844.5 696.833,844.5 696.5,844.5C 696.5,840.167 696.5,835.833 696.5,831.5C 679.325,831.83 662.325,831.497 645.5,830.5 Z"/></g>
<g><path style="opacity:1" fill="#383838" d="M 552.5,838.5 C 565.323,837.505 578.323,837.171 591.5,837.5C 591.83,854.009 591.496,870.342 590.5,886.5C 590.5,870.5 590.5,854.5 590.5,838.5C 577.833,838.5 565.167,838.5 552.5,838.5 Z"/></g>
<g><path style="opacity:1" fill="#444444" d="M 696.5,844.5 C 696.833,844.5 697.167,844.5 697.5,844.5C 680.675,845.497 663.675,845.83 646.5,845.5C 646.83,863.341 646.497,881.008 645.5,898.5C 645.5,880.5 645.5,862.5 645.5,844.5C 662.5,844.5 679.5,844.5 696.5,844.5 Z"/></g>
</svg>
