<?xml version="1.0" standalone="no"?>
<!DOCTYPE svg PUBLIC "-//W3C//DTD SVG 20010904//EN"
 "http://www.w3.org/TR/2001/REC-SVG-20010904/DTD/svg10.dtd">
<svg version="1.0" xmlns="http://www.w3.org/2000/svg"
 width="16.000000pt" height="16.000000pt" viewBox="0 0 16.000000 16.000000"
 preserveAspectRatio="xMidYMid meet">

<g transform="translate(0.000000,16.000000) scale(0.100000,-0.100000)"
fill="#000000" stroke="none">
<path d="M0 80 l0 -80 80 0 80 0 0 80 0 80 -80 0 -80 0 0 -80z m67 28 c-3 -8
-6 -5 -6 6 -1 11 2 17 5 13 3 -3 4 -12 1 -19z m33 0 c0 -12 -3 -18 -7 -14 -11
10 -12 36 -2 36 5 0 9 -10 9 -22z m-60 -38 c-13 -9 -13 -11 0 -20 9 -6 10 -10
3 -10 -6 0 -15 5 -18 10 -8 13 3 30 18 30 7 0 6 -4 -3 -10z m34 -5 c-4 -8 -8
-15 -10 -15 -2 0 -4 7 -4 15 0 8 4 15 10 15 5 0 7 -7 4 -15z m49 0 c3 -6 -4
-12 -14 -12 -10 -1 -19 4 -19 11 0 16 28 17 33 1z"/>
</g>
</svg>
